<svg xmlns="http://www.w3.org/2000/svg" viewBox="0 0 100 100">
  <defs>
    <linearGradient id="toothGrad" x1="0%" y1="0%" x2="100%" y2="100%">
      <stop offset="0%" style="stop-color:#1a5f7a"/>
      <stop offset="100%" style="stop-color:#57837b"/>
    </linearGradient>
  </defs>
  <!-- Tooth shape -->
  <path fill="url(#toothGrad)" d="M50 8c-12 0-22 8-26 20-2 6-1 14 2 22 2 6 5 12 8 18 4 8 8 16 10 24 1 3 3 5 6 5s5-2 6-5c2-8 6-16 10-24 3-6 6-12 8-18 3-8 4-16 2-22-4-12-14-20-26-20z"/>
  <!-- Highlight -->
  <ellipse cx="38" cy="35" rx="8" ry="12" fill="white" opacity="0.3"/>
</svg>
